<svg xmlns="http://www.w3.org/2000/svg" xmlns:xlink="http://www.w3.org/1999/xlink" width="1920" zoomAndPan="magnify" viewBox="0 0 1440 809.999993" height="1080" preserveAspectRatio="xMidYMid meet" version="1.0"><defs><g/><clipPath id="51694f2156"><path d="M 451.640625 128 L 988.640625 128 L 988.640625 682 L 451.640625 682 Z M 451.640625 128 " clip-rule="nonzero"/></clipPath></defs><rect x="-144" width="1728" fill="#ffffff" y="-80.999999" height="971.999992" fill-opacity="1"/><rect x="-144" width="1728" fill="#ffffff" y="-80.999999" height="971.999992" fill-opacity="1"/><g clip-path="url(#51694f2156)"><path fill="#3d3b3a" d="M 652.527344 136.457031 C 656.875 135.367188 661.246094 134.382812 665.640625 133.503906 C 670.035156 132.625 674.449219 131.855469 678.882812 131.191406 C 683.316406 130.527344 687.761719 129.972656 692.222656 129.523438 C 696.683594 129.078125 701.152344 128.738281 705.628906 128.507812 C 710.105469 128.277344 714.582031 128.15625 719.066406 128.140625 C 723.546875 128.128906 728.027344 128.226562 732.503906 128.429688 C 736.984375 128.636719 741.453125 128.949219 745.914062 129.371094 C 750.378906 129.792969 754.828125 130.324219 759.265625 130.960938 C 763.699219 131.597656 768.121094 132.34375 772.519531 133.199219 C 776.921875 134.050781 781.296875 135.011719 785.652344 136.074219 C 790.003906 137.140625 794.332031 138.3125 798.628906 139.585938 C 802.925781 140.863281 807.1875 142.242188 811.417969 143.726562 C 815.648438 145.207031 819.839844 146.792969 823.992188 148.480469 C 828.144531 150.167969 832.253906 151.953125 836.320312 153.839844 C 840.386719 155.726562 844.40625 157.710938 848.375 159.792969 C 852.34375 161.875 856.261719 164.050781 860.125 166.320312 C 863.988281 168.59375 867.796875 170.957031 871.542969 173.414062 C 875.292969 175.871094 878.980469 178.417969 882.605469 181.054688 C 886.230469 183.691406 889.789062 186.414062 893.285156 189.222656 C 896.777344 192.03125 900.199219 194.921875 903.550781 197.898438 C 906.90625 200.871094 910.183594 203.929688 913.386719 207.0625 C 916.589844 210.195312 919.71875 213.40625 922.765625 216.695312 C 925.8125 219.980469 928.78125 223.339844 931.664062 226.769531 C 934.550781 230.199219 937.351562 233.699219 940.066406 237.265625 C 942.78125 240.832031 945.40625 244.460938 947.945312 248.15625 C 950.484375 251.851562 952.929688 255.605469 955.285156 259.417969 C 957.644531 263.230469 959.90625 267.097656 962.074219 271.023438 C 964.242188 274.945312 966.3125 278.917969 968.289062 282.941406 C 970.261719 286.964844 972.140625 291.035156 973.917969 295.148438 C 975.695312 299.265625 977.371094 303.421875 978.945312 307.617188 C 980.523438 311.8125 981.996094 316.046875 983.363281 320.3125 C 984.734375 324.582031 986 328.878906 987.160156 333.210938 C 987.589844 334.808594 988.011719 336.4375 988.417969 338.097656 L 984.1875 339.570312 C 983.757812 337.835938 983.316406 336.097656 982.847656 334.359375 C 981.699219 330.070312 980.445312 325.808594 979.085938 321.578125 C 977.726562 317.347656 976.265625 313.152344 974.703125 308.996094 C 973.140625 304.835938 971.476562 300.71875 969.710938 296.644531 C 967.945312 292.566406 966.082031 288.535156 964.117188 284.550781 C 962.15625 280.5625 960.097656 276.628906 957.941406 272.742188 C 955.785156 268.859375 953.539062 265.027344 951.195312 261.253906 C 948.851562 257.480469 946.417969 253.765625 943.894531 250.109375 C 941.367188 246.453125 938.757812 242.863281 936.054688 239.335938 C 933.355469 235.804688 930.570312 232.347656 927.699219 228.957031 C 924.832031 225.566406 921.878906 222.246094 918.847656 219 C 915.816406 215.753906 912.703125 212.582031 909.515625 209.488281 C 906.328125 206.394531 903.066406 203.378906 899.730469 200.445312 C 896.398438 197.507812 892.992188 194.65625 889.515625 191.890625 C 886.042969 189.121094 882.5 186.441406 878.894531 183.84375 C 875.289062 181.25 871.621094 178.746094 867.894531 176.332031 C 864.164062 173.914062 860.378906 171.59375 856.535156 169.363281 C 852.691406 167.132812 848.796875 165 844.851562 162.960938 C 840.90625 160.921875 836.910156 158.980469 832.867188 157.136719 C 828.824219 155.292969 824.742188 153.550781 820.613281 151.90625 C 816.484375 150.261719 812.320312 148.722656 808.117188 147.28125 C 803.914062 145.84375 799.679688 144.507812 795.410156 143.273438 C 791.140625 142.042969 786.847656 140.917969 782.523438 139.894531 C 778.199219 138.871094 773.855469 137.957031 769.484375 137.148438 C 765.117188 136.339844 760.730469 135.636719 756.328125 135.042969 C 751.925781 134.449219 747.511719 133.964844 743.085938 133.585938 C 738.660156 133.207031 734.226562 132.9375 729.785156 132.777344 C 725.347656 132.617188 720.90625 132.5625 716.460938 132.621094 C 712.019531 132.675781 707.582031 132.84375 703.148438 133.117188 C 698.714844 133.390625 694.289062 133.773438 689.875 134.261719 C 685.457031 134.753906 681.058594 135.351562 676.671875 136.058594 C 672.285156 136.761719 667.917969 137.574219 663.574219 138.496094 C 659.226562 139.414062 654.90625 140.441406 650.609375 141.574219 C 651.28125 139.882812 651.925781 138.195312 652.527344 136.46875 Z M 455.867188 471.007812 C 456.226562 472.433594 456.585938 473.847656 456.972656 475.273438 C 458.125 479.574219 459.382812 483.84375 460.742188 488.085938 C 462.105469 492.328125 463.570312 496.53125 465.140625 500.699219 C 466.710938 504.867188 468.378906 508.996094 470.152344 513.082031 C 471.921875 517.167969 473.792969 521.207031 475.761719 525.203125 C 477.730469 529.195312 479.796875 533.140625 481.960938 537.035156 C 484.125 540.925781 486.382812 544.765625 488.734375 548.546875 C 491.085938 552.328125 493.527344 556.050781 496.0625 559.714844 C 498.597656 563.375 501.21875 566.976562 503.929688 570.507812 C 506.640625 574.042969 509.4375 577.507812 512.320312 580.902344 C 515.199219 584.300781 518.164062 587.625 521.207031 590.875 C 524.25 594.125 527.371094 597.300781 530.574219 600.398438 C 533.773438 603.496094 537.046875 606.515625 540.394531 609.449219 C 543.742188 612.386719 547.160156 615.242188 550.648438 618.011719 C 554.136719 620.78125 557.691406 623.460938 561.308594 626.058594 C 564.929688 628.652344 568.609375 631.15625 572.355469 633.570312 C 576.097656 635.984375 579.894531 638.304688 583.753906 640.535156 C 587.609375 642.761719 591.519531 644.894531 595.480469 646.929688 C 599.441406 648.964844 603.449219 650.902344 607.503906 652.742188 C 611.5625 654.582031 615.660156 656.320312 619.800781 657.957031 C 623.945312 659.597656 628.125 661.132812 632.339844 662.566406 C 636.558594 663.996094 640.808594 665.324219 645.089844 666.550781 C 649.371094 667.773438 653.679688 668.894531 658.019531 669.90625 C 662.355469 670.917969 666.714844 671.824219 671.097656 672.625 C 675.476562 673.421875 679.875 674.113281 684.292969 674.695312 C 688.707031 675.277344 693.132812 675.753906 697.574219 676.117188 C 702.011719 676.484375 706.457031 676.742188 710.90625 676.886719 C 715.359375 677.035156 719.8125 677.074219 724.265625 677.003906 C 728.71875 676.933594 733.167969 676.753906 737.609375 676.460938 C 742.054688 676.171875 746.488281 675.773438 750.914062 675.269531 C 755.339844 674.761719 759.75 674.144531 764.144531 673.421875 C 768.539062 672.699219 772.914062 671.867188 777.265625 670.929688 C 781.621094 669.992188 785.949219 668.945312 790.25 667.796875 C 789.558594 669.484375 788.886719 671.1875 788.261719 672.910156 C 783.910156 674.019531 779.53125 675.023438 775.128906 675.917969 C 770.726562 676.816406 766.304688 677.601562 761.863281 678.28125 C 757.421875 678.964844 752.96875 679.535156 748.5 680 C 744.03125 680.460938 739.554688 680.816406 735.066406 681.0625 C 730.582031 681.308594 726.09375 681.441406 721.597656 681.46875 C 717.105469 681.496094 712.617188 681.414062 708.128906 681.222656 C 703.640625 681.03125 699.15625 680.726562 694.683594 680.316406 C 690.210938 679.90625 685.75 679.390625 681.300781 678.761719 C 676.851562 678.132812 672.421875 677.398438 668.007812 676.554688 C 663.59375 675.710938 659.207031 674.761719 654.839844 673.703125 C 650.472656 672.648438 646.132812 671.484375 641.824219 670.214844 C 637.515625 668.949219 633.238281 667.574219 628.996094 666.097656 C 624.753906 664.621094 620.546875 663.042969 616.382812 661.363281 C 612.214844 659.679688 608.09375 657.898438 604.011719 656.015625 C 599.933594 654.132812 595.902344 652.152344 591.917969 650.074219 C 587.9375 647.996094 584.007812 645.824219 580.128906 643.550781 C 576.253906 641.28125 572.433594 638.917969 568.671875 636.464844 C 564.910156 634.007812 561.210938 631.460938 557.570312 628.824219 C 553.933594 626.191406 550.363281 623.464844 546.855469 620.65625 C 543.351562 617.847656 539.914062 614.953125 536.550781 611.976562 C 533.1875 608.996094 529.898438 605.941406 526.679688 602.800781 C 523.464844 599.664062 520.328125 596.449219 517.269531 593.160156 C 514.210938 589.871094 511.234375 586.507812 508.339844 583.070312 C 505.445312 579.636719 502.632812 576.132812 499.910156 572.5625 C 497.183594 568.988281 494.546875 565.351562 492 561.652344 C 489.453125 557.949219 486.996094 554.191406 484.632812 550.371094 C 482.269531 546.550781 480 542.675781 477.824219 538.742188 C 475.648438 534.8125 473.570312 530.832031 471.585938 526.800781 C 469.605469 522.769531 467.722656 518.691406 465.941406 514.566406 C 464.15625 510.441406 462.476562 506.277344 460.894531 502.074219 C 459.316406 497.867188 457.839844 493.625 456.464844 489.347656 C 455.089844 485.070312 453.820312 480.761719 452.65625 476.421875 C 452.308594 475.117188 451.976562 473.800781 451.640625 472.492188 Z M 455.867188 471.007812 " fill-opacity="1" fill-rule="evenodd"/></g><g fill="#000000" fill-opacity="1"><g transform="translate(539.387523, 393.477203)"><g><path d="M 3.703125 -28.6875 L 12.28125 -28.6875 C 15.945312 -28.6875 18.960938 -27.976562 21.328125 -26.5625 C 23.691406 -25.144531 25.410156 -23.3125 26.484375 -21.0625 C 27.566406 -18.820312 28.109375 -16.414062 28.109375 -13.84375 C 28.109375 -11.082031 27.457031 -8.648438 26.15625 -6.546875 C 24.851562 -4.441406 23.101562 -2.820312 20.90625 -1.6875 C 18.71875 -0.5625 16.3125 0 13.6875 0 L 3.703125 0 Z M 12.703125 -5.453125 C 15.640625 -5.453125 17.96875 -6.207031 19.6875 -7.71875 C 21.40625 -9.226562 22.265625 -11.398438 22.265625 -14.234375 C 22.265625 -16.515625 21.789062 -18.332031 20.84375 -19.6875 C 19.894531 -21.039062 18.785156 -21.976562 17.515625 -22.5 C 16.253906 -23.019531 15.066406 -23.28125 13.953125 -23.28125 L 9.359375 -23.28125 L 9.359375 -5.453125 Z M 12.703125 -5.453125 "/></g></g></g><g fill="#000000" fill-opacity="1"><g transform="translate(600.638959, 393.477203)"><g><path d="M 19.1875 0 L 13.140625 -9.125 L 9.359375 -9.125 L 9.359375 0 L 3.703125 0 L 3.703125 -28.6875 L 12.390625 -28.6875 C 15.953125 -28.6875 18.710938 -27.820312 20.671875 -26.09375 C 22.640625 -24.363281 23.625 -22.007812 23.625 -19.03125 C 23.625 -17.257812 23.253906 -15.597656 22.515625 -14.046875 C 21.773438 -12.503906 20.640625 -11.289062 19.109375 -10.40625 L 25.765625 0 Z M 9.359375 -14.578125 L 13.375 -14.578125 C 14.90625 -14.578125 16.019531 -15.023438 16.71875 -15.921875 C 17.425781 -16.816406 17.78125 -17.785156 17.78125 -18.828125 C 17.78125 -19.867188 17.476562 -20.863281 16.875 -21.8125 C 16.28125 -22.757812 15.125 -23.234375 13.40625 -23.234375 L 9.359375 -23.234375 Z M 9.359375 -14.578125 "/></g></g></g><g fill="#000000" fill-opacity="1"><g transform="translate(658.578003, 393.477203)"><g><path d="M 9.359375 -28.6875 L 9.359375 0 L 3.703125 0 L 3.703125 -28.6875 Z M 9.359375 -28.6875 "/></g></g></g><g fill="#000000" fill-opacity="1"><g transform="translate(702.838907, 393.477203)"><g><path d="M 27.4375 -28.6875 L 14.34375 1.328125 L 1.25 -28.6875 L 8.03125 -28.6875 L 14.578125 -12.515625 L 20.734375 -28.6875 Z M 27.4375 -28.6875 "/></g></g></g><g fill="#000000" fill-opacity="1"><g transform="translate(762.726432, 393.477203)"><g><path d="M 23.28125 -28.6875 L 23.28125 -23.234375 L 9.359375 -23.234375 L 9.359375 -17.109375 L 21.671875 -17.109375 L 21.671875 -11.65625 L 9.359375 -11.65625 L 9.359375 -5.453125 L 23.8125 -5.453125 L 23.8125 0 L 3.703125 0 L 3.703125 -28.6875 Z M 23.28125 -28.6875 "/></g></g></g><g fill="#000000" fill-opacity="1"><g transform="translate(819.886107, 393.477203)"><g><path d="M 19.1875 0 L 13.140625 -9.125 L 9.359375 -9.125 L 9.359375 0 L 3.703125 0 L 3.703125 -28.6875 L 12.390625 -28.6875 C 15.953125 -28.6875 18.710938 -27.820312 20.671875 -26.09375 C 22.640625 -24.363281 23.625 -22.007812 23.625 -19.03125 C 23.625 -17.257812 23.253906 -15.597656 22.515625 -14.046875 C 21.773438 -12.503906 20.640625 -11.289062 19.109375 -10.40625 L 25.765625 0 Z M 9.359375 -14.578125 L 13.375 -14.578125 C 14.90625 -14.578125 16.019531 -15.023438 16.71875 -15.921875 C 17.425781 -16.816406 17.78125 -17.785156 17.78125 -18.828125 C 17.78125 -19.867188 17.476562 -20.863281 16.875 -21.8125 C 16.28125 -22.757812 15.125 -23.234375 13.40625 -23.234375 L 9.359375 -23.234375 Z M 9.359375 -14.578125 "/></g></g></g><g fill="#000000" fill-opacity="1"><g transform="translate(877.82515, 393.477203)"><g><path d="M 19.03125 -21.75 C 16.53125 -23.125 14.359375 -23.8125 12.515625 -23.8125 C 11.265625 -23.8125 10.296875 -23.566406 9.609375 -23.078125 C 8.921875 -22.585938 8.578125 -21.847656 8.578125 -20.859375 C 8.578125 -19.941406 9.078125 -19.140625 10.078125 -18.453125 C 11.078125 -17.765625 12.410156 -17.109375 14.078125 -16.484375 C 15.421875 -15.992188 16.570312 -15.429688 17.53125 -14.796875 C 18.5 -14.160156 19.300781 -13.28125 19.9375 -12.15625 C 20.570312 -11.039062 20.890625 -9.625 20.890625 -7.90625 C 20.890625 -6.425781 20.503906 -5.054688 19.734375 -3.796875 C 18.972656 -2.535156 17.851562 -1.535156 16.375 -0.796875 C 14.894531 -0.0546875 13.128906 0.3125 11.078125 0.3125 C 9.359375 0.3125 7.65625 0.0625 5.96875 -0.4375 C 4.28125 -0.945312 2.707031 -1.722656 1.25 -2.765625 L 3.75 -7.171875 C 4.726562 -6.441406 5.851562 -5.84375 7.125 -5.375 C 8.40625 -4.90625 9.550781 -4.671875 10.5625 -4.671875 C 11.757812 -4.671875 12.800781 -4.925781 13.6875 -5.4375 C 14.570312 -5.945312 15.015625 -6.769531 15.015625 -7.90625 C 15.015625 -9.394531 13.625 -10.679688 10.84375 -11.765625 C 9.195312 -12.421875 7.828125 -13.046875 6.734375 -13.640625 C 5.648438 -14.242188 4.710938 -15.101562 3.921875 -16.21875 C 3.128906 -17.332031 2.734375 -18.734375 2.734375 -20.421875 C 2.734375 -22.890625 3.546875 -24.878906 5.171875 -26.390625 C 6.796875 -27.898438 8.957031 -28.71875 11.65625 -28.84375 C 13.789062 -28.84375 15.570312 -28.601562 17 -28.125 C 18.425781 -27.644531 19.816406 -26.960938 21.171875 -26.078125 Z M 19.03125 -21.75 "/></g></g></g><g fill="#000000" fill-opacity="1"><g transform="translate(584.179464, 448.011462)"><g><path d="M 3.703125 -28.6875 L 12.28125 -28.6875 C 15.945312 -28.6875 18.960938 -27.976562 21.328125 -26.5625 C 23.691406 -25.144531 25.410156 -23.3125 26.484375 -21.0625 C 27.566406 -18.820312 28.109375 -16.414062 28.109375 -13.84375 C 28.109375 -11.082031 27.457031 -8.648438 26.15625 -6.546875 C 24.851562 -4.441406 23.101562 -2.820312 20.90625 -1.6875 C 18.71875 -0.5625 16.3125 0 13.6875 0 L 3.703125 0 Z M 12.703125 -5.453125 C 15.640625 -5.453125 17.96875 -6.207031 19.6875 -7.71875 C 21.40625 -9.226562 22.265625 -11.398438 22.265625 -14.234375 C 22.265625 -16.515625 21.789062 -18.332031 20.84375 -19.6875 C 19.894531 -21.039062 18.785156 -21.976562 17.515625 -22.5 C 16.253906 -23.019531 15.066406 -23.28125 13.953125 -23.28125 L 9.359375 -23.28125 L 9.359375 -5.453125 Z M 12.703125 -5.453125 "/></g></g></g><g fill="#000000" fill-opacity="1"><g transform="translate(645.4309, 448.011462)"><g><path d="M 19.1875 0 L 13.140625 -9.125 L 9.359375 -9.125 L 9.359375 0 L 3.703125 0 L 3.703125 -28.6875 L 12.390625 -28.6875 C 15.953125 -28.6875 18.710938 -27.820312 20.671875 -26.09375 C 22.640625 -24.363281 23.625 -22.007812 23.625 -19.03125 C 23.625 -17.257812 23.253906 -15.597656 22.515625 -14.046875 C 21.773438 -12.503906 20.640625 -11.289062 19.109375 -10.40625 L 25.765625 0 Z M 9.359375 -14.578125 L 13.375 -14.578125 C 14.90625 -14.578125 16.019531 -15.023438 16.71875 -15.921875 C 17.425781 -16.816406 17.78125 -17.785156 17.78125 -18.828125 C 17.78125 -19.867188 17.476562 -20.863281 16.875 -21.8125 C 16.28125 -22.757812 15.125 -23.234375 13.40625 -23.234375 L 9.359375 -23.234375 Z M 9.359375 -14.578125 "/></g></g></g><g fill="#000000" fill-opacity="1"><g transform="translate(703.369943, 448.011462)"><g><path d="M 23.28125 -28.6875 L 23.28125 -23.234375 L 9.359375 -23.234375 L 9.359375 -17.109375 L 21.671875 -17.109375 L 21.671875 -11.65625 L 9.359375 -11.65625 L 9.359375 -5.453125 L 23.8125 -5.453125 L 23.8125 0 L 3.703125 0 L 3.703125 -28.6875 Z M 23.28125 -28.6875 "/></g></g></g><g fill="#000000" fill-opacity="1"><g transform="translate(760.529618, 448.011462)"><g><path d="M 17.890625 -5.609375 L 8.375 -5.609375 L 6.046875 0 L 0.46875 0 L 13.40625 -29.828125 L 13.71875 -29.828125 L 26.671875 0 L 20.109375 0 Z M 16.015625 -10.375 L 13.25 -17.34375 L 10.375 -10.375 Z M 16.015625 -10.375 "/></g></g></g><g fill="#000000" fill-opacity="1"><g transform="translate(818.858374, 448.011462)"><g><path d="M 33.25 -29.859375 L 33.25 0 L 27.59375 0 L 27.59375 -13.6875 L 18.25 -0.390625 L 18.171875 -0.390625 L 9.15625 -12.828125 L 9.15625 0 L 3.703125 0 L 3.703125 -29.859375 L 3.75 -29.859375 L 18.28125 -9.234375 L 33.171875 -29.859375 Z M 33.25 -29.859375 "/></g></g></g><g fill="#000000" fill-opacity="1"><g transform="translate(612.303493, 499.707556)"><g><path d="M 17.109375 -1.53125 C 16.535156 -1.113281 15.742188 -0.71875 14.734375 -0.34375 C 13.734375 0.03125 12.632812 0.21875 11.4375 0.21875 C 9.425781 0.21875 7.664062 -0.222656 6.15625 -1.109375 C 4.65625 -1.992188 3.5 -3.175781 2.6875 -4.65625 C 1.875 -6.144531 1.46875 -7.785156 1.46875 -9.578125 C 1.46875 -11.515625 1.875 -13.25 2.6875 -14.78125 C 3.5 -16.3125 4.628906 -17.507812 6.078125 -18.375 C 7.535156 -19.238281 9.191406 -19.671875 11.046875 -19.671875 C 12.179688 -19.671875 13.234375 -19.519531 14.203125 -19.21875 C 15.179688 -18.914062 16.046875 -18.535156 16.796875 -18.078125 L 15.5625 -15.15625 C 14.113281 -16.175781 12.640625 -16.6875 11.140625 -16.6875 C 10.003906 -16.6875 8.941406 -16.378906 7.953125 -15.765625 C 6.960938 -15.148438 6.171875 -14.3125 5.578125 -13.25 C 4.992188 -12.1875 4.703125 -11.023438 4.703125 -9.765625 C 4.703125 -8.421875 4.972656 -7.21875 5.515625 -6.15625 C 6.066406 -5.101562 6.84375 -4.273438 7.84375 -3.671875 C 8.851562 -3.078125 10.015625 -2.78125 11.328125 -2.78125 C 12.273438 -2.78125 13.128906 -2.921875 13.890625 -3.203125 C 14.648438 -3.492188 15.285156 -3.859375 15.796875 -4.296875 Z M 17.109375 -1.53125 "/></g></g></g><g fill="#000000" fill-opacity="1"><g transform="translate(641.580507, 499.707556)"><g><path d="M 12.671875 -4.578125 L 5.59375 -4.578125 L 3.71875 0 L 0.640625 0 L 9.25 -20.265625 L 9.4375 -20.265625 L 18.046875 0 L 14.46875 0 Z M 11.625 -7.25 L 9.203125 -13.390625 L 6.6875 -7.25 Z M 11.625 -7.25 "/></g></g></g><g fill="#000000" fill-opacity="1"><g transform="translate(670.964477, 499.707556)"><g><path d="M 13.3125 0 L 8.921875 -6.765625 L 5.796875 -6.765625 L 5.796875 0 L 2.671875 0 L 2.671875 -19.46875 L 8.15625 -19.46875 C 10.332031 -19.46875 12.070312 -18.910156 13.375 -17.796875 C 14.6875 -16.691406 15.34375 -15.160156 15.34375 -13.203125 C 15.34375 -12.015625 15.085938 -10.90625 14.578125 -9.875 C 14.078125 -8.851562 13.28125 -8.066406 12.1875 -7.515625 L 16.921875 0 Z M 5.796875 -9.765625 L 8.578125 -9.765625 C 9.828125 -9.765625 10.734375 -10.101562 11.296875 -10.78125 C 11.859375 -11.46875 12.140625 -12.238281 12.140625 -13.09375 C 12.140625 -13.59375 12.03125 -14.097656 11.8125 -14.609375 C 11.601562 -15.117188 11.238281 -15.554688 10.71875 -15.921875 C 10.195312 -16.285156 9.519531 -16.46875 8.6875 -16.46875 L 5.796875 -16.46875 Z M 5.796875 -9.765625 "/></g></g></g><g fill="#000000" fill-opacity="1"><g transform="translate(699.573064, 499.707556)"><g/></g></g><g fill="#000000" fill-opacity="1"><g transform="translate(718.823677, 499.707556)"><g><path d="M 11.890625 -10.15625 C 12.984375 -9.707031 13.835938 -9.09375 14.453125 -8.3125 C 15.066406 -7.53125 15.375 -6.625 15.375 -5.59375 C 15.375 -3.695312 14.734375 -2.289062 13.453125 -1.375 C 12.179688 -0.457031 10.609375 0 8.734375 0 L 2.671875 0 L 2.671875 -19.46875 L 8 -19.46875 C 10.03125 -19.46875 11.601562 -19.050781 12.71875 -18.21875 C 13.84375 -17.382812 14.40625 -16.164062 14.40625 -14.5625 C 14.40625 -13.550781 14.1875 -12.675781 13.75 -11.9375 C 13.3125 -11.195312 12.691406 -10.601562 11.890625 -10.15625 Z M 5.796875 -11.171875 L 8.5 -11.171875 C 9.394531 -11.171875 10.066406 -11.425781 10.515625 -11.9375 C 10.972656 -12.457031 11.203125 -13.113281 11.203125 -13.90625 C 11.203125 -14.757812 10.929688 -15.398438 10.390625 -15.828125 C 9.847656 -16.253906 9.09375 -16.46875 8.125 -16.46875 L 5.796875 -16.46875 Z M 8.609375 -2.890625 C 9.660156 -2.890625 10.515625 -3.113281 11.171875 -3.5625 C 11.835938 -4.019531 12.171875 -4.6875 12.171875 -5.5625 C 12.171875 -6.488281 11.804688 -7.15625 11.078125 -7.5625 C 10.359375 -7.976562 9.460938 -8.1875 8.390625 -8.1875 L 5.796875 -8.1875 L 5.796875 -2.890625 Z M 8.609375 -2.890625 "/></g></g></g><g fill="#000000" fill-opacity="1"><g transform="translate(746.362794, 499.707556)"><g><path d="M 5.796875 -19.46875 L 5.796875 -3 L 15.40625 -3 L 15.40625 0 L 2.671875 0 L 2.671875 -19.46875 Z M 5.796875 -19.46875 "/></g></g></g><g fill="#000000" fill-opacity="1"><g transform="translate(773.901919, 499.707556)"><g><path d="M 1.46875 -9.703125 C 1.46875 -11.484375 1.910156 -13.132812 2.796875 -14.65625 C 3.691406 -16.1875 4.898438 -17.40625 6.421875 -18.3125 C 7.953125 -19.21875 9.617188 -19.671875 11.421875 -19.671875 C 13.203125 -19.671875 14.851562 -19.21875 16.375 -18.3125 C 17.894531 -17.40625 19.109375 -16.179688 20.015625 -14.640625 C 20.929688 -13.109375 21.390625 -11.460938 21.390625 -9.703125 C 21.390625 -7.898438 20.9375 -6.238281 20.03125 -4.71875 C 19.132812 -3.207031 17.921875 -2.003906 16.390625 -1.109375 C 14.859375 -0.222656 13.203125 0.21875 11.421875 0.21875 C 9.617188 0.21875 7.953125 -0.222656 6.421875 -1.109375 C 4.898438 -1.992188 3.691406 -3.191406 2.796875 -4.703125 C 1.910156 -6.222656 1.46875 -7.890625 1.46875 -9.703125 Z M 4.671875 -9.703125 C 4.671875 -8.441406 4.972656 -7.285156 5.578125 -6.234375 C 6.191406 -5.179688 7.019531 -4.34375 8.0625 -3.71875 C 9.101562 -3.09375 10.25 -2.78125 11.5 -2.78125 C 12.726562 -2.78125 13.847656 -3.085938 14.859375 -3.703125 C 15.878906 -4.316406 16.6875 -5.15625 17.28125 -6.21875 C 17.875 -7.28125 18.171875 -8.441406 18.171875 -9.703125 C 18.171875 -10.972656 17.867188 -12.140625 17.265625 -13.203125 C 16.660156 -14.273438 15.84375 -15.125 14.8125 -15.75 C 13.78125 -16.375 12.648438 -16.6875 11.421875 -16.6875 C 10.171875 -16.6875 9.03125 -16.375 8 -15.75 C 6.976562 -15.125 6.164062 -14.273438 5.5625 -13.203125 C 4.96875 -12.140625 4.671875 -10.972656 4.671875 -9.703125 Z M 4.671875 -9.703125 "/></g></g></g><g fill="#000000" fill-opacity="1"><g transform="translate(807.45687, 499.707556)"><g><path d="M 18.15625 -1.796875 C 17.613281 -1.296875 16.675781 -0.832031 15.34375 -0.40625 C 14.019531 0.0078125 12.804688 0.21875 11.703125 0.21875 C 9.660156 0.21875 7.863281 -0.191406 6.3125 -1.015625 C 4.757812 -1.835938 3.5625 -2.960938 2.71875 -4.390625 C 1.882812 -5.828125 1.46875 -7.457031 1.46875 -9.28125 C 1.46875 -11.46875 1.914062 -13.34375 2.8125 -14.90625 C 3.71875 -16.476562 4.929688 -17.664062 6.453125 -18.46875 C 7.972656 -19.269531 9.644531 -19.671875 11.46875 -19.671875 C 12.59375 -19.671875 13.65625 -19.539062 14.65625 -19.28125 C 15.664062 -19.03125 16.554688 -18.691406 17.328125 -18.265625 L 16.3125 -15.375 C 15.769531 -15.695312 15.054688 -15.972656 14.171875 -16.203125 C 13.296875 -16.429688 12.53125 -16.546875 11.875 -16.546875 C 9.644531 -16.546875 7.882812 -15.929688 6.59375 -14.703125 C 5.3125 -13.472656 4.671875 -11.753906 4.671875 -9.546875 C 4.671875 -8.222656 4.96875 -7.054688 5.5625 -6.046875 C 6.164062 -5.046875 7.003906 -4.269531 8.078125 -3.71875 C 9.160156 -3.164062 10.398438 -2.890625 11.796875 -2.890625 C 12.410156 -2.890625 13.003906 -2.945312 13.578125 -3.0625 C 14.148438 -3.175781 14.632812 -3.34375 15.03125 -3.5625 L 15.03125 -6.796875 L 11.359375 -6.796875 L 11.359375 -9.78125 L 18.15625 -9.78125 Z M 18.15625 -1.796875 "/></g></g></g><g fill="#3d3b3a" fill-opacity="1"><g transform="translate(666.185887, 392.423728)"><g><path d="M 132.636719 -139.402344 C 131.167969 -139.988281 128.816406 -140.285156 122.050781 -140.871094 C 115.875 -141.460938 70.289062 -143.226562 64.703125 -143.226562 L 56.464844 -143.519531 L 50.878906 -143.519531 C 51.761719 -144.695312 54.40625 -147.636719 56.171875 -149.105469 C 57.347656 -149.988281 58.523438 -151.164062 59.703125 -152.636719 C 60.878906 -154.105469 64.996094 -157.929688 67.054688 -159.695312 L 69.996094 -162.046875 L 71.171875 -163.519531 C 72.054688 -164.398438 72.054688 -164.695312 71.464844 -165.578125 C 71.171875 -166.164062 70.582031 -166.457031 70.289062 -166.457031 C 69.699219 -166.457031 66.171875 -163.8125 65.878906 -162.929688 L 63.230469 -160.578125 C 59.996094 -157.929688 59.40625 -157.636719 58.820312 -156.753906 C 58.230469 -156.164062 50.585938 -148.8125 49.410156 -147.929688 L 48.527344 -147.046875 L 46.171875 -144.402344 L 44.996094 -143.226562 L 3.527344 -142.34375 L -2.941406 -141.753906 C -7.941406 -141.460938 -22.058594 -140.285156 -24.410156 -139.695312 C -26.761719 -139.109375 -27.9375 -137.929688 -27.058594 -137.050781 C -26.761719 -136.460938 -20.882812 -137.050781 -16.761719 -137.929688 C -15.882812 -138.226562 -8.824219 -139.109375 -1.765625 -139.402344 L 5.585938 -139.988281 L 13.527344 -140.285156 L 23.234375 -140.871094 C 25.878906 -141.167969 35.878906 -141.167969 42.351562 -141.167969 C 42.054688 -140.578125 41.46875 -140.285156 41.171875 -139.695312 L 40.292969 -139.109375 L 39.410156 -137.929688 L 35.878906 -134.109375 C 31.761719 -129.695312 18.820312 -115.582031 16.175781 -111.757812 C 16.175781 -111.757812 11.46875 -106.167969 11.46875 -106.464844 C 11.46875 -106.167969 10.292969 -104.992188 9.117188 -103.816406 C 7.648438 -102.347656 5.292969 -99.699219 -0.882812 -92.347656 L -3.234375 -89.699219 L -5.585938 -86.757812 C -6.175781 -85.875 -6.46875 -85.289062 -6.765625 -85.289062 C -7.351562 -85.289062 -8.824219 -83.523438 -13.527344 -77.347656 C -15.292969 -75.289062 -16.761719 -73.523438 -17.351562 -73.230469 C -17.644531 -72.640625 -20.585938 -69.113281 -23.820312 -65.289062 L -31.175781 -56.171875 L -43.230469 -39.996094 C -46.171875 -35.878906 -47.9375 -33.527344 -48.527344 -33.820312 L -48.527344 -33.234375 C -48.527344 -32.9375 -48.527344 -32.351562 -48.820312 -31.761719 C -49.113281 -30.878906 -49.410156 -30.585938 -49.703125 -30.878906 C -49.703125 -30.585938 -49.996094 -30.292969 -49.996094 -30.292969 C -49.996094 -29.703125 -49.996094 -29.410156 -50.289062 -29.410156 C -50.289062 -29.703125 -51.171875 -27.9375 -51.761719 -25.878906 C -52.9375 -22.941406 -53.230469 -21.761719 -52.9375 -20.292969 C -52.347656 -18.527344 -52.054688 -18.234375 -51.171875 -17.941406 C -49.996094 -17.941406 -49.410156 -17.941406 -49.113281 -18.527344 C -48.527344 -19.410156 -48.527344 -19.410156 -49.703125 -19.703125 C -50.878906 -19.703125 -50.878906 -20 -50.878906 -21.175781 C -50.585938 -22.644531 -48.230469 -27.644531 -46.171875 -30.878906 C -40.585938 -39.113281 -25.878906 -57.9375 -16.46875 -68.820312 L -11.765625 -74.40625 L -2.058594 -85.582031 L 5.882812 -94.40625 L 8.527344 -97.640625 L 12.058594 -101.464844 C 14.703125 -104.40625 17.058594 -107.34375 22.058594 -113.226562 C 23.820312 -115.285156 25.878906 -117.34375 26.761719 -118.226562 C 27.644531 -119.109375 29.117188 -120.875 29.996094 -122.050781 L 34.996094 -127.34375 C 38.234375 -130.875 40.292969 -132.636719 42.054688 -134.992188 L 44.703125 -137.636719 C 45.585938 -138.8125 46.46875 -139.402344 47.054688 -140.285156 L 48.527344 -141.167969 C 50.878906 -141.460938 52.644531 -141.167969 53.527344 -141.167969 L 54.703125 -141.167969 C 71.757812 -140.871094 112.640625 -139.695312 118.519531 -138.8125 C 120.285156 -138.226562 123.226562 -138.226562 124.695312 -137.929688 C 127.636719 -137.929688 127.636719 -137.929688 127.050781 -136.753906 C 126.460938 -136.167969 126.753906 -135.578125 127.050781 -135.285156 C 127.636719 -134.695312 127.933594 -134.402344 128.226562 -134.695312 L 131.167969 -135.871094 C 134.402344 -137.34375 134.695312 -138.226562 132.636719 -139.402344 Z M 132.636719 -139.402344 "/></g></g></g><g fill="#3d3b3a" fill-opacity="1"><g transform="translate(696.183444, 392.423728)"><g><path d="M 105.875 -161.753906 C 105.285156 -162.636719 102.347656 -162.636719 99.40625 -162.046875 L 96.167969 -161.460938 C 94.40625 -161.164062 91.464844 -160.28125 90.289062 -159.695312 L 87.933594 -159.105469 C 81.757812 -157.34375 73.523438 -153.8125 67.347656 -150.285156 L 64.113281 -148.519531 L 61.464844 -146.753906 L 56.464844 -143.519531 C 52.9375 -141.167969 48.820312 -138.226562 48.527344 -137.929688 L 39.113281 -130.578125 L 32.9375 -125.285156 L 22.941406 -116.460938 C 21.46875 -114.992188 19.703125 -113.226562 18.820312 -112.640625 L 16.175781 -111.757812 C 14.703125 -111.167969 13.527344 -110.875 13.527344 -110.582031 C 13.527344 -110.582031 13.234375 -110.285156 12.941406 -110.285156 C 12.644531 -110.285156 11.765625 -109.992188 10.585938 -109.402344 C 9.707031 -109.109375 9.117188 -108.816406 8.824219 -108.523438 L 5.882812 -107.34375 L -3.234375 -104.109375 C -4.117188 -103.816406 -5.292969 -103.226562 -5.585938 -102.933594 C -6.175781 -101.757812 -5.882812 -101.167969 -4.707031 -101.167969 C -4.117188 -101.167969 -2.941406 -101.464844 -1.765625 -101.757812 L 1.175781 -103.226562 C 2.058594 -103.816406 3.234375 -104.109375 4.410156 -104.40625 L 9.707031 -106.167969 C 10 -106.464844 10.585938 -106.464844 11.175781 -106.757812 C 11.175781 -107.050781 13.234375 -107.640625 13.527344 -107.34375 C 13.527344 -107.34375 11.46875 -104.992188 8.527344 -102.347656 L -1.765625 -91.464844 L -2.941406 -90.289062 L -5.585938 -87.050781 L -8.234375 -84.113281 C -9.117188 -83.230469 -10.292969 -82.054688 -10.292969 -80.875 C -10.292969 -79.996094 -9.117188 -79.40625 -8.527344 -79.113281 C -7.648438 -78.816406 -7.351562 -79.113281 -7.058594 -79.40625 L -6.175781 -79.996094 L -4.707031 -81.171875 L -3.824219 -82.054688 L -2.941406 -82.640625 L -2.351562 -82.933594 L 1.175781 -86.464844 L 2.941406 -87.347656 L 3.234375 -87.347656 L 5 -88.523438 C 5.585938 -89.113281 7.058594 -89.699219 8.234375 -89.992188 L 11.46875 -91.171875 C 12.351562 -91.464844 12.941406 -91.757812 12.941406 -91.464844 C 12.941406 -91.171875 12.941406 -91.171875 12.644531 -91.171875 C 12.351562 -91.171875 10.292969 -88.523438 9.410156 -86.757812 L 8.527344 -84.992188 C 7.351562 -82.347656 7.351562 -81.171875 8.824219 -79.996094 C 9.707031 -79.40625 10.292969 -79.113281 11.175781 -79.40625 L 11.765625 -79.699219 C 14.117188 -79.996094 22.058594 -83.523438 23.234375 -84.113281 C 25 -84.699219 24.410156 -84.992188 28.527344 -86.757812 C 29.117188 -86.757812 30.292969 -87.933594 31.761719 -88.523438 C 37.9375 -91.464844 32.644531 -89.40625 38.234375 -91.464844 C 40.878906 -93.230469 38.820312 -93.230469 37.644531 -93.230469 L 30.292969 -89.992188 C 26.46875 -88.230469 16.175781 -83.816406 13.234375 -82.640625 L 12.058594 -82.347656 L 11.46875 -82.347656 C 11.175781 -82.347656 11.46875 -83.523438 12.351562 -85.289062 L 12.644531 -86.171875 C 13.234375 -87.347656 15 -89.40625 17.644531 -92.050781 C 18.820312 -93.523438 19.117188 -93.816406 18.820312 -94.40625 C 18.234375 -95.289062 17.058594 -95.289062 13.234375 -94.109375 C 8.527344 -92.347656 5.882812 -91.464844 3.527344 -90.289062 C 3.234375 -90.289062 3.234375 -89.992188 2.941406 -89.992188 C 2.351562 -89.699219 1.765625 -89.40625 1.46875 -89.699219 L 1.46875 -90.289062 C 2.351562 -91.757812 10.292969 -99.699219 15.882812 -105.285156 L 20.882812 -110.285156 L 22.351562 -111.167969 L 33.527344 -116.167969 C 37.351562 -117.933594 39.703125 -118.816406 40.292969 -119.109375 L 45.289062 -121.167969 C 47.644531 -122.34375 49.996094 -123.226562 50.289062 -123.226562 C 50.878906 -123.226562 52.347656 -123.816406 53.527344 -124.402344 C 59.703125 -127.34375 73.230469 -133.519531 76.464844 -135.578125 L 78.230469 -136.167969 C 79.113281 -136.460938 79.699219 -137.050781 79.699219 -137.34375 C 79.996094 -137.636719 80.582031 -137.929688 81.171875 -138.226562 C 81.757812 -138.226562 82.933594 -138.8125 83.816406 -139.402344 L 88.230469 -142.050781 C 89.699219 -143.226562 92.640625 -144.988281 94.40625 -146.460938 L 98.816406 -149.695312 C 100.285156 -150.578125 104.109375 -154.402344 105.285156 -156.460938 C 106.757812 -158.519531 106.757812 -160.578125 105.875 -161.753906 Z M 102.933594 -157.34375 L 101.167969 -155.285156 C 100.582031 -154.402344 99.699219 -153.222656 99.40625 -153.222656 L 96.464844 -150.871094 C 94.699219 -149.105469 90.289062 -146.167969 86.464844 -143.8125 L 76.464844 -138.226562 L 72.9375 -136.460938 L 69.699219 -134.695312 L 64.113281 -132.050781 C 62.347656 -130.875 60.289062 -129.992188 59.40625 -129.695312 L 55.289062 -128.226562 L 49.410156 -125.578125 L 42.9375 -122.933594 C 41.46875 -122.34375 39.996094 -121.757812 39.703125 -121.757812 C 39.410156 -121.757812 38.234375 -121.167969 36.761719 -120.578125 C 35.585938 -119.992188 34.117188 -119.402344 33.820312 -119.402344 C 33.527344 -119.402344 32.054688 -118.519531 30.292969 -117.640625 C 28.234375 -116.757812 27.351562 -116.460938 27.351562 -116.757812 C 27.351562 -117.050781 27.351562 -117.640625 27.644531 -117.640625 L 31.175781 -120.578125 C 37.054688 -125.875 47.9375 -134.992188 48.527344 -134.992188 L 50.878906 -136.753906 C 55.289062 -140.285156 64.703125 -146.460938 72.054688 -150.285156 C 77.640625 -152.929688 85.289062 -155.871094 90.582031 -157.34375 L 95.289062 -158.8125 C 96.167969 -159.105469 101.167969 -159.695312 102.050781 -159.402344 C 102.640625 -159.105469 102.933594 -158.8125 103.226562 -158.222656 C 103.226562 -157.929688 102.933594 -157.34375 102.933594 -157.34375 Z M 102.933594 -157.34375 "/></g></g></g><g fill="#3d3b3a" fill-opacity="1"><g transform="translate(738.532875, 392.423728)"><g><path d="M -2.941406 -80.289062 C 0.292969 -80.875 2.351562 -81.464844 7.648438 -84.113281 L 20.882812 -89.992188 L 24.703125 -91.757812 C 25 -92.050781 25 -92.933594 24.410156 -93.230469 L 24.117188 -93.523438 L 23.234375 -93.523438 L 22.644531 -93.230469 C 6.46875 -86.171875 -3.234375 -82.640625 -5 -83.230469 C -5.585938 -83.523438 -5.585938 -83.816406 -4.707031 -84.699219 C -4.117188 -85.875 -3.527344 -86.171875 -1.46875 -86.757812 C 1.765625 -87.640625 4.707031 -89.113281 9.707031 -92.640625 C 14.410156 -95.875 16.46875 -97.640625 16.175781 -98.523438 C 15.585938 -100.285156 12.941406 -99.992188 8.234375 -98.226562 C 2.351562 -96.167969 -4.410156 -90.875 -7.351562 -86.171875 C -8.824219 -83.816406 -9.117188 -82.933594 -8.527344 -81.757812 C -8.234375 -79.699219 -7.648438 -79.699219 -2.941406 -80.289062 Z M -0.589844 -89.992188 C -0.292969 -90.875 4.707031 -94.40625 6.765625 -94.992188 C 8.527344 -95.875 11.46875 -97.050781 11.46875 -96.464844 C 11.175781 -96.167969 6.765625 -93.230469 4.117188 -91.757812 C 0.882812 -89.992188 -1.175781 -89.40625 -0.589844 -89.992188 Z M -0.589844 -89.992188 "/></g></g></g><g fill="#000000" fill-opacity="1"><g transform="translate(645.464518, 556.021562)"><g><path d="M 10.34375 -12.921875 L 10.34375 -10.9375 L 3.859375 -10.9375 L 3.859375 -7.484375 L 9.640625 -7.484375 L 9.640625 -5.5 L 3.859375 -5.5 L 3.859375 -1.984375 L 10.59375 -1.984375 L 10.59375 0 L 1.78125 0 L 1.78125 -12.921875 Z M 10.34375 -12.921875 "/></g></g></g><g fill="#000000" fill-opacity="1"><g transform="translate(664.250391, 556.021562)"><g><path d="M 8.5625 -10.296875 C 7.445312 -10.878906 6.457031 -11.171875 5.59375 -11.171875 C 4.945312 -11.171875 4.4375 -11.023438 4.0625 -10.734375 C 3.695312 -10.453125 3.515625 -10.0625 3.515625 -9.5625 C 3.515625 -9.082031 3.75 -8.675781 4.21875 -8.34375 C 4.6875 -8.019531 5.335938 -7.703125 6.171875 -7.390625 C 6.816406 -7.160156 7.363281 -6.898438 7.8125 -6.609375 C 8.269531 -6.316406 8.644531 -5.921875 8.9375 -5.421875 C 9.238281 -4.929688 9.390625 -4.304688 9.390625 -3.546875 C 9.390625 -2.859375 9.21875 -2.238281 8.875 -1.6875 C 8.53125 -1.132812 8.03125 -0.691406 7.375 -0.359375 C 6.726562 -0.0234375 5.960938 0.140625 5.078125 0.140625 C 4.296875 0.140625 3.523438 0.0195312 2.765625 -0.21875 C 2.015625 -0.457031 1.34375 -0.789062 0.75 -1.21875 L 1.671875 -2.84375 C 2.109375 -2.507812 2.625 -2.234375 3.21875 -2.015625 C 3.820312 -1.796875 4.375 -1.6875 4.875 -1.6875 C 5.507812 -1.6875 6.0625 -1.835938 6.53125 -2.140625 C 7 -2.441406 7.234375 -2.90625 7.234375 -3.53125 C 7.234375 -4.03125 7.035156 -4.441406 6.640625 -4.765625 C 6.242188 -5.097656 5.691406 -5.40625 4.984375 -5.6875 C 4.253906 -5.957031 3.644531 -6.222656 3.15625 -6.484375 C 2.675781 -6.753906 2.257812 -7.128906 1.90625 -7.609375 C 1.5625 -8.085938 1.390625 -8.6875 1.390625 -9.40625 C 1.390625 -10.457031 1.742188 -11.304688 2.453125 -11.953125 C 3.171875 -12.597656 4.117188 -12.945312 5.296875 -13 C 6.140625 -13 6.882812 -12.898438 7.53125 -12.703125 C 8.175781 -12.503906 8.78125 -12.226562 9.34375 -11.875 Z M 8.5625 -10.296875 "/></g></g></g><g fill="#000000" fill-opacity="1"><g transform="translate(681.686808, 556.021562)"><g><path d="M 9.5 -12.921875 L 9.5 -10.9375 L 6.15625 -10.9375 L 6.15625 0 L 4.09375 0 L 4.09375 -10.9375 L 0.859375 -10.9375 L 0.859375 -12.921875 Z M 9.5 -12.921875 "/></g></g></g><g fill="#000000" fill-opacity="1"><g transform="translate(699.140973, 556.021562)"><g><path d="M 1.78125 -12.921875 L 5.453125 -12.921875 C 7.066406 -12.921875 8.40625 -12.597656 9.46875 -11.953125 C 10.53125 -11.316406 11.300781 -10.492188 11.78125 -9.484375 C 12.269531 -8.484375 12.515625 -7.414062 12.515625 -6.28125 C 12.515625 -5.03125 12.21875 -3.925781 11.625 -2.96875 C 11.039062 -2.019531 10.257812 -1.285156 9.28125 -0.765625 C 8.300781 -0.253906 7.234375 0 6.078125 0 L 1.78125 0 Z M 5.703125 -1.984375 C 6.617188 -1.984375 7.425781 -2.15625 8.125 -2.5 C 8.832031 -2.84375 9.382812 -3.347656 9.78125 -4.015625 C 10.1875 -4.679688 10.390625 -5.484375 10.390625 -6.421875 C 10.390625 -7.441406 10.171875 -8.289062 9.734375 -8.96875 C 9.304688 -9.65625 8.753906 -10.15625 8.078125 -10.46875 C 7.410156 -10.789062 6.722656 -10.953125 6.015625 -10.953125 L 3.859375 -10.953125 L 3.859375 -1.984375 Z M 5.703125 -1.984375 "/></g></g></g><g fill="#000000" fill-opacity="1"><g transform="translate(719.755718, 556.021562)"><g/></g></g><g fill="#000000" fill-opacity="1"><g transform="translate(732.540036, 556.021562)"><g><path d="M 9.125 -1.984375 L 9.125 0 L 0.953125 0 L 1.59375 -0.640625 C 2.769531 -1.804688 3.691406 -2.757812 4.359375 -3.5 C 5.023438 -4.238281 5.578125 -4.984375 6.015625 -5.734375 C 6.460938 -6.492188 6.6875 -7.207031 6.6875 -7.875 C 6.6875 -8.519531 6.488281 -9.015625 6.09375 -9.359375 C 5.707031 -9.703125 5.226562 -9.875 4.65625 -9.875 C 4.019531 -9.875 3.53125 -9.691406 3.1875 -9.328125 C 2.851562 -8.972656 2.6875 -8.578125 2.6875 -8.140625 C 2.6875 -7.410156 2.914062 -6.800781 3.375 -6.3125 L 2.109375 -5.171875 C 1.679688 -5.398438 1.332031 -5.816406 1.0625 -6.421875 C 0.800781 -7.035156 0.671875 -7.59375 0.671875 -8.09375 C 0.671875 -8.738281 0.84375 -9.351562 1.1875 -9.9375 C 1.53125 -10.519531 2.03125 -10.984375 2.6875 -11.328125 C 3.34375 -11.679688 4.113281 -11.859375 5 -11.859375 C 5.75 -11.859375 6.414062 -11.679688 7 -11.328125 C 7.582031 -10.984375 8.035156 -10.519531 8.359375 -9.9375 C 8.679688 -9.351562 8.84375 -8.726562 8.84375 -8.0625 C 8.84375 -7.382812 8.6875 -6.710938 8.375 -6.046875 C 8.070312 -5.390625 7.703125 -4.773438 7.265625 -4.203125 C 6.835938 -3.640625 6.234375 -2.898438 5.453125 -1.984375 Z M 9.125 -1.984375 "/></g></g></g><g fill="#000000" fill-opacity="1"><g transform="translate(749.585815, 556.021562)"><g><path d="M 5.5625 0.03125 C 4.613281 0.0390625 3.765625 -0.179688 3.015625 -0.640625 C 2.273438 -1.109375 1.691406 -1.789062 1.265625 -2.6875 C 0.835938 -3.59375 0.625 -4.664062 0.625 -5.90625 C 0.625 -7.914062 1.0625 -9.410156 1.9375 -10.390625 C 2.820312 -11.367188 4.03125 -11.851562 5.5625 -11.84375 C 6.5 -11.851562 7.34375 -11.625 8.09375 -11.15625 C 8.84375 -10.6875 9.425781 -10.003906 9.84375 -9.109375 C 10.257812 -8.222656 10.46875 -7.15625 10.46875 -5.90625 C 10.46875 -4.632812 10.253906 -3.550781 9.828125 -2.65625 C 9.398438 -1.757812 8.816406 -1.082031 8.078125 -0.625 C 7.335938 -0.175781 6.5 0.0390625 5.5625 0.03125 Z M 5.53125 -1.9375 C 6.46875 -1.9375 7.164062 -2.300781 7.625 -3.03125 C 8.09375 -3.757812 8.328125 -4.738281 8.328125 -5.96875 C 8.328125 -7.15625 8.09375 -8.101562 7.625 -8.8125 C 7.164062 -9.519531 6.46875 -9.863281 5.53125 -9.84375 C 4.613281 -9.863281 3.921875 -9.515625 3.453125 -8.796875 C 2.992188 -8.078125 2.765625 -7.113281 2.765625 -5.90625 C 2.765625 -4.695312 2.992188 -3.734375 3.453125 -3.015625 C 3.921875 -2.296875 4.613281 -1.9375 5.53125 -1.9375 Z M 5.53125 -1.9375 "/></g></g></g><g fill="#000000" fill-opacity="1"><g transform="translate(767.785729, 556.021562)"><g><path d="M 9.125 -1.984375 L 9.125 0 L 0.953125 0 L 1.59375 -0.640625 C 2.769531 -1.804688 3.691406 -2.757812 4.359375 -3.5 C 5.023438 -4.238281 5.578125 -4.984375 6.015625 -5.734375 C 6.460938 -6.492188 6.6875 -7.207031 6.6875 -7.875 C 6.6875 -8.519531 6.488281 -9.015625 6.09375 -9.359375 C 5.707031 -9.703125 5.226562 -9.875 4.65625 -9.875 C 4.019531 -9.875 3.53125 -9.691406 3.1875 -9.328125 C 2.851562 -8.972656 2.6875 -8.578125 2.6875 -8.140625 C 2.6875 -7.410156 2.914062 -6.800781 3.375 -6.3125 L 2.109375 -5.171875 C 1.679688 -5.398438 1.332031 -5.816406 1.0625 -6.421875 C 0.800781 -7.035156 0.671875 -7.59375 0.671875 -8.09375 C 0.671875 -8.738281 0.84375 -9.351562 1.1875 -9.9375 C 1.53125 -10.519531 2.03125 -10.984375 2.6875 -11.328125 C 3.34375 -11.679688 4.113281 -11.859375 5 -11.859375 C 5.75 -11.859375 6.414062 -11.679688 7 -11.328125 C 7.582031 -10.984375 8.035156 -10.519531 8.359375 -9.9375 C 8.679688 -9.351562 8.84375 -8.726562 8.84375 -8.0625 C 8.84375 -7.382812 8.6875 -6.710938 8.375 -6.046875 C 8.070312 -5.390625 7.703125 -4.773438 7.265625 -4.203125 C 6.835938 -3.640625 6.234375 -2.898438 5.453125 -1.984375 Z M 9.125 -1.984375 "/></g></g></g><g fill="#000000" fill-opacity="1"><g transform="translate(784.831509, 556.021562)"><g><path d="M 8.984375 -4.296875 L 8.984375 -2.71875 L 7.515625 -2.71875 L 7.515625 0 L 5.4375 0 L 5.4375 -2.71875 L 0.21875 -2.71875 L 0.21875 -2.734375 L 7.484375 -11.859375 L 7.515625 -11.859375 L 7.515625 -4.296875 Z M 5.4375 -4.296875 L 5.4375 -7.125 L 3.265625 -4.296875 Z M 5.4375 -4.296875 "/></g></g></g></svg>