<svg xmlns="http://www.w3.org/2000/svg" xmlns:xlink="http://www.w3.org/1999/xlink" width="500" zoomAndPan="magnify" viewBox="0 0 375 374.999991" height="500" preserveAspectRatio="xMidYMid meet" version="1.0"><defs><g/><clipPath id="f466ba74f2"><path d="M 163.257812 95.253906 L 209.246094 95.253906 L 209.246094 233.964844 L 163.257812 233.964844 Z M 163.257812 95.253906 " clip-rule="nonzero"/></clipPath></defs><rect x="-37.5" width="450" fill="#ffffff" y="-37.499999" height="449.999989" fill-opacity="1"/><rect x="-37.5" width="450" fill="#000000" y="-37.499999" height="449.999989" fill-opacity="1"/><g fill="#faf6f5" fill-opacity="1"><g transform="translate(169.279388, 228.969873)"><g><path d="M 19.710938 0 L 12.5 -107.085938 C 12.378906 -109.128906 12.980469 -110.332031 13.820312 -110.332031 C 14.421875 -110.332031 15.265625 -109.730469 15.984375 -108.410156 C 17.789062 -105.40625 59.011719 -28.003906 59.011719 -28.003906 C 59.011719 -28.003906 94.707031 -104.5625 96.75 -108.410156 C 97.472656 -109.730469 98.191406 -110.332031 98.792969 -110.332031 C 99.636719 -110.332031 100.238281 -109.128906 100.238281 -107.085938 L 100.238281 0 L 110.332031 0 L 110.332031 -120.1875 L 99.273438 -120.1875 L 64.539062 -46.03125 C 63.699219 -44.347656 62.859375 -43.507812 61.898438 -43.507812 C 60.933594 -43.507812 59.972656 -44.347656 59.132812 -45.910156 L 19.46875 -120.1875 L 9.613281 -120.1875 L 9.613281 0 Z M 19.710938 0 "/></g></g></g><g clip-path="url(#f466ba74f2)"><path fill="#000000" d="M 163.257812 95.253906 L 209.246094 95.253906 L 209.246094 233.929688 L 163.257812 233.929688 Z M 163.257812 95.253906 " fill-opacity="1" fill-rule="nonzero"/></g><g fill="#faf6f5" fill-opacity="1"><g transform="translate(80.602469, 228.969873)"><g><path d="M 19.710938 0 L 12.5 -107.085938 C 12.378906 -109.128906 12.980469 -110.332031 13.820312 -110.332031 C 14.421875 -110.332031 15.265625 -109.730469 15.984375 -108.410156 C 17.789062 -105.40625 59.011719 -28.003906 59.011719 -28.003906 C 59.011719 -28.003906 94.707031 -104.5625 96.75 -108.410156 C 97.472656 -109.730469 98.191406 -110.332031 98.792969 -110.332031 C 99.636719 -110.332031 100.238281 -109.128906 100.238281 -107.085938 L 100.238281 0 L 110.332031 0 L 110.332031 -120.1875 L 99.273438 -120.1875 L 64.539062 -46.03125 C 63.699219 -44.347656 62.859375 -43.507812 61.898438 -43.507812 C 60.933594 -43.507812 59.972656 -44.347656 59.132812 -45.910156 L 19.46875 -120.1875 L 9.613281 -120.1875 L 9.613281 0 Z M 19.710938 0 "/></g></g></g><g fill="#faf6f5" fill-opacity="1"><g transform="translate(101.713173, 266.49051)"><g><path d="M 5.390625 0 L 4.265625 0 L 1.875 -7.046875 L 1.875 0 L 0.859375 0 L 0.859375 -8.40625 L 2.34375 -8.40625 L 4.84375 -1.078125 L 7.296875 -8.40625 L 8.78125 -8.40625 L 8.78125 0 L 7.765625 0 L 7.765625 -7.046875 Z M 5.390625 0 "/></g></g></g><g fill="#faf6f5" fill-opacity="1"><g transform="translate(120.523732, 266.49051)"><g><path d="M 5.46875 -2.53125 L 2.234375 -2.53125 L 1.34375 0 L 0.203125 0 L 3.203125 -8.40625 L 4.578125 -8.40625 L 7.53125 0 L 6.328125 0 Z M 5.15625 -3.421875 L 3.875 -7.265625 L 2.484375 -3.421875 Z M 5.15625 -3.421875 "/></g></g></g><g fill="#faf6f5" fill-opacity="1"><g transform="translate(137.426348, 266.49051)"><g><path d="M 1.578125 -4.171875 C 1.578125 -3.878906 1.601562 -3.582031 1.65625 -3.28125 C 1.707031 -2.988281 1.804688 -2.679688 1.953125 -2.359375 C 2.097656 -2.046875 2.273438 -1.765625 2.484375 -1.515625 C 2.703125 -1.273438 2.992188 -1.070312 3.359375 -0.90625 C 3.722656 -0.75 4.132812 -0.671875 4.59375 -0.671875 C 5.351562 -0.671875 5.976562 -0.914062 6.46875 -1.40625 C 6.96875 -1.894531 7.21875 -2.515625 7.21875 -3.265625 L 7.21875 -3.484375 L 4.671875 -3.484375 L 4.671875 -4.453125 L 8.1875 -4.453125 L 8.1875 0.046875 L 7.5 0.046875 L 7.21875 -1.078125 C 6.820312 -0.617188 6.390625 -0.28125 5.921875 -0.0625 C 5.453125 0.15625 4.929688 0.265625 4.359375 0.265625 C 3.609375 0.265625 2.941406 0.0820312 2.359375 -0.28125 C 1.773438 -0.65625 1.316406 -1.175781 0.984375 -1.84375 C 0.660156 -2.507812 0.5 -3.269531 0.5 -4.125 C 0.5 -4.488281 0.535156 -4.851562 0.609375 -5.21875 C 0.679688 -5.59375 0.8125 -5.984375 1 -6.390625 C 1.1875 -6.804688 1.425781 -7.164062 1.71875 -7.46875 C 2.007812 -7.78125 2.398438 -8.035156 2.890625 -8.234375 C 3.378906 -8.441406 3.929688 -8.546875 4.546875 -8.546875 C 5.503906 -8.546875 6.289062 -8.3125 6.90625 -7.84375 C 7.53125 -7.375 7.914062 -6.710938 8.0625 -5.859375 L 6.96875 -5.859375 C 6.851562 -6.398438 6.578125 -6.820312 6.140625 -7.125 C 5.710938 -7.4375 5.175781 -7.59375 4.53125 -7.59375 C 3.644531 -7.59375 2.929688 -7.28125 2.390625 -6.65625 C 1.847656 -6.039062 1.578125 -5.210938 1.578125 -4.171875 Z M 1.578125 -4.171875 "/></g></g></g><g fill="#faf6f5" fill-opacity="1"><g transform="translate(155.609462, 266.49051)"><g><path d="M 7.453125 -8.40625 L 7.453125 0 L 6.234375 0 L 1.890625 -6.8125 L 1.890625 0 L 0.875 0 L 0.875 -8.40625 L 2.046875 -8.40625 L 6.4375 -1.53125 L 6.4375 -8.40625 Z M 7.453125 -8.40625 "/></g></g></g><g fill="#faf6f5" fill-opacity="1"><g transform="translate(173.145913, 266.49051)"><g><path d="M 2.234375 -8.40625 L 2.234375 0 L 1.15625 0 L 1.15625 -8.40625 Z M 2.234375 -8.40625 "/></g></g></g><g fill="#faf6f5" fill-opacity="1"><g transform="translate(185.566768, 266.49051)"><g><path d="M 2.109375 -3.828125 L 2.109375 0 L 1.03125 0 L 1.03125 -8.40625 L 6.671875 -8.40625 L 6.671875 -7.453125 L 2.109375 -7.453125 L 2.109375 -4.765625 L 6.125 -4.765625 L 6.125 -3.828125 Z M 2.109375 -3.828125 "/></g></g></g><g fill="#faf6f5" fill-opacity="1"><g transform="translate(201.822723, 266.49051)"><g><path d="M 2.234375 -8.40625 L 2.234375 0 L 1.15625 0 L 1.15625 -8.40625 Z M 2.234375 -8.40625 "/></g></g></g><g fill="#faf6f5" fill-opacity="1"><g transform="translate(214.243578, 266.49051)"><g><path d="M 0.546875 -4.109375 C 0.546875 -4.367188 0.5625 -4.628906 0.59375 -4.890625 C 0.632812 -5.160156 0.695312 -5.441406 0.78125 -5.734375 C 0.863281 -6.035156 0.96875 -6.316406 1.09375 -6.578125 C 1.21875 -6.847656 1.378906 -7.101562 1.578125 -7.34375 C 1.785156 -7.59375 2.019531 -7.800781 2.28125 -7.96875 C 2.539062 -8.144531 2.847656 -8.285156 3.203125 -8.390625 C 3.566406 -8.492188 3.960938 -8.546875 4.390625 -8.546875 C 6.222656 -8.546875 7.304688 -7.628906 7.640625 -5.796875 L 6.53125 -5.796875 C 6.414062 -6.398438 6.175781 -6.847656 5.8125 -7.140625 C 5.445312 -7.441406 4.929688 -7.59375 4.265625 -7.59375 C 3.453125 -7.59375 2.804688 -7.28125 2.328125 -6.65625 C 1.859375 -6.039062 1.625 -5.195312 1.625 -4.125 C 1.625 -3.0625 1.867188 -2.21875 2.359375 -1.59375 C 2.859375 -0.976562 3.523438 -0.671875 4.359375 -0.671875 C 5.046875 -0.671875 5.570312 -0.863281 5.9375 -1.25 C 6.3125 -1.644531 6.566406 -2.25 6.703125 -3.0625 L 7.8125 -3.0625 C 7.550781 -0.84375 6.394531 0.265625 4.34375 0.265625 C 3.863281 0.265625 3.421875 0.195312 3.015625 0.0625 C 2.617188 -0.0703125 2.285156 -0.253906 2.015625 -0.484375 C 1.742188 -0.722656 1.507812 -0.984375 1.3125 -1.265625 C 1.113281 -1.554688 0.960938 -1.867188 0.859375 -2.203125 C 0.753906 -2.546875 0.675781 -2.867188 0.625 -3.171875 C 0.570312 -3.484375 0.546875 -3.796875 0.546875 -4.109375 Z M 0.546875 -4.109375 "/></g></g></g><g fill="#faf6f5" fill-opacity="1"><g transform="translate(231.780036, 266.49051)"><g><path d="M 2.109375 -3.828125 L 2.109375 -0.953125 L 7.078125 -0.953125 L 7.078125 0 L 1.03125 0 L 1.03125 -8.40625 L 6.859375 -8.40625 L 6.859375 -7.453125 L 2.109375 -7.453125 L 2.109375 -4.765625 L 6.6875 -4.765625 L 6.6875 -3.828125 Z M 2.109375 -3.828125 "/></g></g></g><g fill="#faf6f5" fill-opacity="1"><g transform="translate(248.682657, 266.49051)"><g><path d="M 7.453125 -8.40625 L 7.453125 0 L 6.234375 0 L 1.890625 -6.8125 L 1.890625 0 L 0.875 0 L 0.875 -8.40625 L 2.046875 -8.40625 L 6.4375 -1.53125 L 6.4375 -8.40625 Z M 7.453125 -8.40625 "/></g></g></g><g fill="#faf6f5" fill-opacity="1"><g transform="translate(266.219116, 266.49051)"><g><path d="M 4.078125 -7.453125 L 4.078125 0 L 3.015625 0 L 3.015625 -7.453125 L 0.25 -7.453125 L 0.25 -8.40625 L 6.84375 -8.40625 L 6.84375 -7.453125 Z M 4.078125 -7.453125 "/></g></g></g><g fill="#faf6f5" fill-opacity="1"><g transform="translate(124.822217, 283.777275)"><g><path d="M 5.390625 0 L 4.265625 0 L 1.875 -7.046875 L 1.875 0 L 0.859375 0 L 0.859375 -8.40625 L 2.34375 -8.40625 L 4.84375 -1.078125 L 7.296875 -8.40625 L 8.78125 -8.40625 L 8.78125 0 L 7.765625 0 L 7.765625 -7.046875 Z M 5.390625 0 "/></g></g></g><g fill="#faf6f5" fill-opacity="1"><g transform="translate(143.632777, 283.777275)"><g><path d="M 5.46875 -2.53125 L 2.234375 -2.53125 L 1.34375 0 L 0.203125 0 L 3.203125 -8.40625 L 4.578125 -8.40625 L 7.53125 0 L 6.328125 0 Z M 5.15625 -3.421875 L 3.875 -7.265625 L 2.484375 -3.421875 Z M 5.15625 -3.421875 "/></g></g></g><g fill="#faf6f5" fill-opacity="1"><g transform="translate(160.535392, 283.777275)"><g><path d="M 0.546875 -4.109375 C 0.546875 -4.367188 0.5625 -4.628906 0.59375 -4.890625 C 0.632812 -5.160156 0.695312 -5.441406 0.78125 -5.734375 C 0.863281 -6.035156 0.96875 -6.316406 1.09375 -6.578125 C 1.21875 -6.847656 1.378906 -7.101562 1.578125 -7.34375 C 1.785156 -7.59375 2.019531 -7.800781 2.28125 -7.96875 C 2.539062 -8.144531 2.847656 -8.285156 3.203125 -8.390625 C 3.566406 -8.492188 3.960938 -8.546875 4.390625 -8.546875 C 6.222656 -8.546875 7.304688 -7.628906 7.640625 -5.796875 L 6.53125 -5.796875 C 6.414062 -6.398438 6.175781 -6.847656 5.8125 -7.140625 C 5.445312 -7.441406 4.929688 -7.59375 4.265625 -7.59375 C 3.453125 -7.59375 2.804688 -7.28125 2.328125 -6.65625 C 1.859375 -6.039062 1.625 -5.195312 1.625 -4.125 C 1.625 -3.0625 1.867188 -2.21875 2.359375 -1.59375 C 2.859375 -0.976562 3.523438 -0.671875 4.359375 -0.671875 C 5.046875 -0.671875 5.570312 -0.863281 5.9375 -1.25 C 6.3125 -1.644531 6.566406 -2.25 6.703125 -3.0625 L 7.8125 -3.0625 C 7.550781 -0.84375 6.394531 0.265625 4.34375 0.265625 C 3.863281 0.265625 3.421875 0.195312 3.015625 0.0625 C 2.617188 -0.0703125 2.285156 -0.253906 2.015625 -0.484375 C 1.742188 -0.722656 1.507812 -0.984375 1.3125 -1.265625 C 1.113281 -1.554688 0.960938 -1.867188 0.859375 -2.203125 C 0.753906 -2.546875 0.675781 -2.867188 0.625 -3.171875 C 0.570312 -3.484375 0.546875 -3.796875 0.546875 -4.109375 Z M 0.546875 -4.109375 "/></g></g></g><g fill="#faf6f5" fill-opacity="1"><g transform="translate(178.071847, 283.777275)"><g><path d="M 6.34375 -3.828125 L 2.03125 -3.828125 L 2.03125 0 L 0.953125 0 L 0.953125 -8.40625 L 2.03125 -8.40625 L 2.03125 -4.765625 L 6.34375 -4.765625 L 6.34375 -8.40625 L 7.421875 -8.40625 L 7.421875 0 L 6.34375 0 Z M 6.34375 -3.828125 "/></g></g></g><g fill="#faf6f5" fill-opacity="1"><g transform="translate(195.608298, 283.777275)"><g><path d="M 2.234375 -8.40625 L 2.234375 0 L 1.15625 0 L 1.15625 -8.40625 Z M 2.234375 -8.40625 "/></g></g></g><g fill="#faf6f5" fill-opacity="1"><g transform="translate(208.029153, 283.777275)"><g><path d="M 7.453125 -8.40625 L 7.453125 0 L 6.234375 0 L 1.890625 -6.8125 L 1.890625 0 L 0.875 0 L 0.875 -8.40625 L 2.046875 -8.40625 L 6.4375 -1.53125 L 6.4375 -8.40625 Z M 7.453125 -8.40625 "/></g></g></g><g fill="#faf6f5" fill-opacity="1"><g transform="translate(225.565604, 283.777275)"><g><path d="M 2.109375 -3.828125 L 2.109375 -0.953125 L 7.078125 -0.953125 L 7.078125 0 L 1.03125 0 L 1.03125 -8.40625 L 6.859375 -8.40625 L 6.859375 -7.453125 L 2.109375 -7.453125 L 2.109375 -4.765625 L 6.6875 -4.765625 L 6.6875 -3.828125 Z M 2.109375 -3.828125 "/></g></g></g><g fill="#faf6f5" fill-opacity="1"><g transform="translate(242.468217, 283.777275)"><g><path d="M 3.953125 -0.671875 C 4.296875 -0.671875 4.597656 -0.707031 4.859375 -0.78125 C 5.128906 -0.851562 5.335938 -0.9375 5.484375 -1.03125 C 5.640625 -1.132812 5.765625 -1.257812 5.859375 -1.40625 C 5.953125 -1.550781 6.015625 -1.6875 6.046875 -1.8125 C 6.078125 -1.9375 6.09375 -2.066406 6.09375 -2.203125 C 6.09375 -2.535156 5.96875 -2.8125 5.71875 -3.03125 C 5.46875 -3.25 5.078125 -3.425781 4.546875 -3.5625 L 2.453125 -4.125 C 1.359375 -4.40625 0.8125 -5.054688 0.8125 -6.078125 C 0.8125 -6.835938 1.078125 -7.4375 1.609375 -7.875 C 2.148438 -8.320312 2.878906 -8.546875 3.796875 -8.546875 C 4.765625 -8.546875 5.515625 -8.316406 6.046875 -7.859375 C 6.585938 -7.398438 6.863281 -6.757812 6.875 -5.9375 L 5.859375 -5.9375 C 5.847656 -6.488281 5.660156 -6.910156 5.296875 -7.203125 C 4.941406 -7.492188 4.429688 -7.640625 3.765625 -7.640625 C 3.191406 -7.640625 2.734375 -7.507812 2.390625 -7.25 C 2.046875 -7 1.875 -6.660156 1.875 -6.234375 C 1.875 -5.898438 1.972656 -5.640625 2.171875 -5.453125 C 2.378906 -5.273438 2.742188 -5.117188 3.265625 -4.984375 L 5.375 -4.40625 C 5.945312 -4.257812 6.382812 -4.003906 6.6875 -3.640625 C 7 -3.273438 7.15625 -2.832031 7.15625 -2.3125 C 7.15625 -2.082031 7.125 -1.859375 7.0625 -1.640625 C 7.007812 -1.421875 6.90625 -1.191406 6.75 -0.953125 C 6.601562 -0.722656 6.410156 -0.519531 6.171875 -0.34375 C 5.929688 -0.164062 5.613281 -0.0195312 5.21875 0.09375 C 4.820312 0.207031 4.375 0.265625 3.875 0.265625 C 3.5625 0.265625 3.257812 0.238281 2.96875 0.1875 C 2.675781 0.132812 2.378906 0.0390625 2.078125 -0.09375 C 1.785156 -0.226562 1.53125 -0.398438 1.3125 -0.609375 C 1.09375 -0.816406 0.910156 -1.097656 0.765625 -1.453125 C 0.628906 -1.816406 0.554688 -2.222656 0.546875 -2.671875 L 1.5625 -2.671875 L 1.5625 -2.609375 C 1.5625 -2.378906 1.597656 -2.160156 1.671875 -1.953125 C 1.742188 -1.742188 1.863281 -1.535156 2.03125 -1.328125 C 2.195312 -1.128906 2.441406 -0.96875 2.765625 -0.84375 C 3.097656 -0.726562 3.492188 -0.671875 3.953125 -0.671875 Z M 3.953125 -0.671875 "/></g></g></g></svg>