<svg xmlns="http://www.w3.org/2000/svg" xmlns:xlink="http://www.w3.org/1999/xlink" width="6912" zoomAndPan="magnify" viewBox="0 0 5184 2592.000001" height="3456" preserveAspectRatio="xMidYMid meet" version="1.0"><defs><clipPath id="643adc7a91"><path d="M 1 0 L 5183 0 L 5183 2591 L 1 2591 Z M 1 0 " clip-rule="nonzero"/></clipPath><clipPath id="c295c0cc22"><path d="M 2257.003906 0 L 2892.5 0 L 2892.5 1825 L 2257.003906 1825 Z M 2257.003906 0 " clip-rule="nonzero"/></clipPath></defs><path fill="#ffffff" d="M 1 0 L 5183 0 L 5183 2591 L 1 2591 Z M 1 0 " fill-opacity="1" fill-rule="nonzero"/><path fill="#ffffff" d="M 1 0 L 5183 0 L 5183 2591 L 1 2591 Z M 1 0 " fill-opacity="1" fill-rule="nonzero"/><g clip-path="url(#643adc7a91)"><rect x="-518.4" width="6220.8" fill="#ffffff" y="-259.2" height="3110.400001" fill-opacity="1"/><rect x="-518.4" width="6220.8" fill="#000000" y="-259.2" height="3110.400001" fill-opacity="1"/></g><path fill="#faf6f5" d="M 2612.601562 1756.40625 L 2512.957031 276.625 C 2511.285156 248.390625 2519.597656 231.765625 2531.203125 231.765625 C 2539.515625 231.765625 2551.175781 240.078125 2561.105469 258.324219 C 2586.046875 299.835938 3155.6875 1369.429688 3155.6875 1369.429688 C 3155.6875 1369.429688 3648.949219 311.492188 3677.179688 258.324219 C 3687.167969 240.078125 3697.097656 231.765625 3705.410156 231.765625 C 3717.070312 231.765625 3725.382812 248.390625 3725.382812 276.625 L 3725.382812 1756.40625 L 3864.867188 1756.40625 L 3864.867188 95.578125 L 3712.050781 95.578125 L 3232.066406 1120.316406 C 3220.460938 1143.582031 3208.855469 1155.1875 3195.578125 1155.1875 C 3182.246094 1155.1875 3168.964844 1143.582031 3157.359375 1121.992188 L 2609.257812 95.578125 L 2473.066406 95.578125 L 2473.066406 1756.40625 Z M 2612.601562 1756.40625 " fill-opacity="1" fill-rule="nonzero"/><g clip-path="url(#c295c0cc22)"><path fill="#000000" d="M 2257.003906 -91.371094 L 2892.5 -91.371094 L 2892.5 1824.945312 L 2257.003906 1824.945312 Z M 2257.003906 -91.371094 " fill-opacity="1" fill-rule="nonzero"/></g><path fill="#faf6f5" d="M 1387.191406 1756.40625 L 1287.546875 276.625 C 1285.871094 248.390625 1294.183594 231.765625 1305.789062 231.765625 C 1314.101562 231.765625 1325.761719 240.078125 1335.695312 258.324219 C 1360.632812 299.835938 1930.273438 1369.429688 1930.273438 1369.429688 C 1930.273438 1369.429688 2423.535156 311.492188 2451.769531 258.324219 C 2461.753906 240.078125 2471.6875 231.765625 2480 231.765625 C 2491.660156 231.765625 2499.972656 248.390625 2499.972656 276.625 L 2499.972656 1756.40625 L 2639.453125 1756.40625 L 2639.453125 95.578125 L 2486.636719 95.578125 L 2006.65625 1120.316406 C 1995.050781 1143.582031 1983.445312 1155.1875 1970.164062 1155.1875 C 1956.832031 1155.1875 1943.554688 1143.582031 1931.949219 1121.992188 L 1383.84375 95.578125 L 1247.65625 95.578125 L 1247.65625 1756.40625 Z M 1387.191406 1756.40625 " fill-opacity="1" fill-rule="nonzero"/><path fill="#faf6f5" d="M 1481.027344 2274.882812 L 1465.484375 2274.882812 L 1432.449219 2177.507812 L 1432.449219 2274.882812 L 1418.414062 2274.882812 L 1418.414062 2158.722656 L 1438.925781 2158.722656 L 1473.472656 2259.984375 L 1507.371094 2158.722656 L 1527.882812 2158.722656 L 1527.882812 2274.882812 L 1513.847656 2274.882812 L 1513.847656 2177.507812 Z M 1481.027344 2274.882812 " fill-opacity="1" fill-rule="nonzero"/><path fill="#faf6f5" d="M 1742.050781 2239.90625 L 1697.355469 2239.90625 L 1685.050781 2274.882812 L 1669.289062 2274.882812 L 1710.742188 2158.722656 L 1729.746094 2158.722656 L 1770.550781 2274.882812 L 1753.925781 2274.882812 Z M 1737.734375 2227.597656 L 1720.027344 2174.484375 L 1700.8125 2227.597656 Z M 1737.734375 2227.597656 " fill-opacity="1" fill-rule="nonzero"/><path fill="#faf6f5" d="M 1921.851562 2217.234375 C 1921.851562 2221.28125 1922.175781 2225.386719 1922.929688 2229.542969 C 1923.632812 2233.589844 1924.980469 2237.855469 1927.035156 2242.28125 C 1929.03125 2246.597656 1931.460938 2250.484375 1934.375 2253.941406 C 1937.398438 2257.289062 1941.390625 2260.09375 1946.464844 2262.359375 C 1951.484375 2264.519531 1957.152344 2265.601562 1963.523438 2265.601562 C 1973.996094 2265.601562 1982.632812 2262.253906 1989.433594 2255.453125 C 1996.34375 2248.703125 1999.796875 2240.121094 1999.796875 2229.757812 L 1999.796875 2226.734375 L 1964.601562 2226.734375 L 1964.601562 2213.347656 L 2013.183594 2213.347656 L 2013.183594 2275.53125 L 2003.683594 2275.53125 L 1999.796875 2259.984375 C 1994.292969 2266.355469 1988.355469 2270.996094 1981.875 2274.019531 C 1975.398438 2277.042969 1968.164062 2278.554688 1960.285156 2278.554688 C 1949.921875 2278.554688 1940.691406 2276.019531 1932.648438 2270.996094 C 1924.550781 2265.816406 1918.234375 2258.636719 1913.648438 2249.40625 C 1909.167969 2240.230469 1906.953125 2229.703125 1906.953125 2217.882812 C 1906.953125 2212.863281 1907.4375 2207.84375 1908.464844 2202.769531 C 1909.4375 2197.585938 1911.273438 2192.1875 1913.863281 2186.574219 C 1916.453125 2180.851562 1919.746094 2175.886719 1923.792969 2171.675781 C 1927.789062 2167.359375 1933.1875 2163.847656 1939.988281 2161.097656 C 1946.734375 2158.234375 1954.347656 2156.777344 1962.875 2156.777344 C 1976.101562 2156.777344 1986.949219 2160.015625 1995.480469 2166.496094 C 2004.117188 2172.972656 2009.40625 2182.148438 2011.457031 2193.914062 L 1996.34375 2193.914062 C 1994.722656 2186.464844 1990.945312 2180.636719 1984.898438 2176.425781 C 1978.960938 2172.109375 1971.566406 2169.949219 1962.660156 2169.949219 C 1950.40625 2169.949219 1940.527344 2174.265625 1933.078125 2182.902344 C 1925.574219 2191.433594 1921.851562 2202.875 1921.851562 2217.234375 Z M 1921.851562 2217.234375 " fill-opacity="1" fill-rule="nonzero"/><path fill="#faf6f5" d="M 2254.316406 2158.722656 L 2254.316406 2274.882812 L 2237.472656 2274.882812 L 2177.449219 2180.746094 L 2177.449219 2274.882812 L 2163.414062 2274.882812 L 2163.414062 2158.722656 L 2179.609375 2158.722656 L 2240.28125 2253.722656 L 2240.28125 2158.722656 Z M 2254.316406 2158.722656 " fill-opacity="1" fill-rule="nonzero"/><path fill="#faf6f5" d="M 2409.625 2158.722656 L 2424.523438 2158.722656 L 2424.523438 2274.882812 L 2409.625 2274.882812 Z M 2409.625 2158.722656 " fill-opacity="1" fill-rule="nonzero"/><path fill="#faf6f5" d="M 2594.4375 2221.984375 L 2594.4375 2274.882812 L 2579.539062 2274.882812 L 2579.539062 2158.722656 L 2657.484375 2158.722656 L 2657.484375 2171.890625 L 2594.4375 2171.890625 L 2594.4375 2209.03125 L 2649.929688 2209.03125 L 2649.929688 2221.984375 Z M 2594.4375 2221.984375 " fill-opacity="1" fill-rule="nonzero"/><path fill="#faf6f5" d="M 2805.902344 2158.722656 L 2820.800781 2158.722656 L 2820.800781 2274.882812 L 2805.902344 2274.882812 Z M 2805.902344 2158.722656 " fill-opacity="1" fill-rule="nonzero"/><path fill="#faf6f5" d="M 2969.125 2218.097656 C 2969.125 2214.535156 2969.339844 2210.917969 2969.769531 2207.300781 C 2970.3125 2203.578125 2971.175781 2199.691406 2972.363281 2195.644531 C 2973.496094 2191.488281 2974.953125 2187.601562 2976.679688 2183.984375 C 2978.40625 2180.257812 2980.621094 2176.75 2983.375 2173.402344 C 2986.234375 2169.949219 2989.472656 2167.089844 2993.089844 2164.765625 C 2996.652344 2162.335938 3000.917969 2160.394531 3005.828125 2158.9375 C 3010.847656 2157.535156 3016.300781 2156.777344 3022.238281 2156.777344 C 3047.554688 2156.777344 3062.507812 2169.464844 3067.148438 2194.777344 L 3051.820312 2194.777344 C 3050.199219 2186.464844 3046.90625 2180.257812 3041.886719 2176.210938 C 3036.8125 2172.054688 3029.6875 2169.949219 3020.511719 2169.949219 C 3009.285156 2169.949219 3000.324219 2174.265625 2993.738281 2182.902344 C 2987.261719 2191.433594 2984.023438 2203.09375 2984.023438 2217.882812 C 2984.023438 2232.566406 2987.367188 2244.222656 2994.171875 2252.859375 C 3001.078125 2261.390625 3010.253906 2265.601562 3021.808594 2265.601562 C 3031.308594 2265.601562 3038.539062 2262.953125 3043.613281 2257.609375 C 3048.796875 2252.160156 3052.304688 2243.792969 3054.195312 2232.566406 L 3069.523438 2232.566406 C 3065.910156 2263.226562 3049.929688 2278.554688 3021.589844 2278.554688 C 3014.953125 2278.554688 3008.851562 2277.582031 3003.238281 2275.75 C 2997.734375 2273.914062 2993.144531 2271.375 2989.417969 2268.191406 C 2985.640625 2264.898438 2982.402344 2261.28125 2979.703125 2257.394531 C 2976.949219 2253.402344 2974.84375 2249.082031 2973.441406 2244.441406 C 2971.984375 2239.691406 2970.90625 2235.261719 2970.203125 2231.054688 C 2969.449219 2226.734375 2969.125 2222.417969 2969.125 2218.097656 Z M 2969.125 2218.097656 " fill-opacity="1" fill-rule="nonzero"/><path fill="#faf6f5" d="M 3233.039062 2221.984375 L 3233.039062 2261.714844 L 3301.699219 2261.714844 L 3301.699219 2274.882812 L 3218.140625 2274.882812 L 3218.140625 2158.722656 L 3298.679688 2158.722656 L 3298.679688 2171.890625 L 3233.039062 2171.890625 L 3233.039062 2209.03125 L 3296.304688 2209.03125 L 3296.304688 2221.984375 Z M 3233.039062 2221.984375 " fill-opacity="1" fill-rule="nonzero"/><path fill="#faf6f5" d="M 3540.460938 2158.722656 L 3540.460938 2274.882812 L 3523.617188 2274.882812 L 3463.59375 2180.746094 L 3463.59375 2274.882812 L 3449.558594 2274.882812 L 3449.558594 2158.722656 L 3465.753906 2158.722656 L 3526.425781 2253.722656 L 3526.425781 2158.722656 Z M 3540.460938 2158.722656 " fill-opacity="1" fill-rule="nonzero"/><path fill="#faf6f5" d="M 3736.160156 2171.890625 L 3736.160156 2274.882812 L 3721.476562 2274.882812 L 3721.476562 2171.890625 L 3683.261719 2171.890625 L 3683.261719 2158.722656 L 3774.378906 2158.722656 L 3774.378906 2171.890625 Z M 3736.160156 2171.890625 " fill-opacity="1" fill-rule="nonzero"/><path fill="#faf6f5" d="M 1800.363281 2513.769531 L 1784.820312 2513.769531 L 1751.785156 2416.390625 L 1751.785156 2513.769531 L 1737.75 2513.769531 L 1737.75 2397.605469 L 1758.261719 2397.605469 L 1792.808594 2498.871094 L 1826.707031 2397.605469 L 1847.21875 2397.605469 L 1847.21875 2513.769531 L 1833.183594 2513.769531 L 1833.183594 2416.390625 Z M 1800.363281 2513.769531 " fill-opacity="1" fill-rule="nonzero"/><path fill="#faf6f5" d="M 2061.386719 2478.789062 L 2016.691406 2478.789062 L 2004.386719 2513.769531 L 1988.625 2513.769531 L 2030.078125 2397.605469 L 2049.078125 2397.605469 L 2089.886719 2513.769531 L 2073.261719 2513.769531 Z M 2057.070312 2466.480469 L 2039.363281 2413.367188 L 2020.148438 2466.480469 Z M 2057.070312 2466.480469 " fill-opacity="1" fill-rule="nonzero"/><path fill="#faf6f5" d="M 2226.9375 2456.980469 C 2226.9375 2453.417969 2227.152344 2449.800781 2227.585938 2446.1875 C 2228.125 2442.460938 2228.988281 2438.574219 2230.175781 2434.527344 C 2231.308594 2430.371094 2232.765625 2426.484375 2234.492188 2422.867188 C 2236.222656 2419.140625 2238.433594 2415.632812 2241.1875 2412.285156 C 2244.046875 2408.832031 2247.285156 2405.972656 2250.902344 2403.648438 C 2254.464844 2401.222656 2258.730469 2399.277344 2263.640625 2397.820312 C 2268.664062 2396.417969 2274.113281 2395.660156 2280.050781 2395.660156 C 2305.367188 2395.660156 2320.320312 2408.347656 2324.960938 2433.664062 L 2309.632812 2433.664062 C 2308.011719 2425.351562 2304.71875 2419.140625 2299.699219 2415.09375 C 2294.625 2410.9375 2287.5 2408.832031 2278.324219 2408.832031 C 2267.097656 2408.832031 2258.136719 2413.152344 2251.550781 2421.789062 C 2245.074219 2430.316406 2241.835938 2441.976562 2241.835938 2456.765625 C 2241.835938 2471.449219 2245.183594 2483.109375 2251.984375 2491.746094 C 2258.890625 2500.273438 2268.070312 2504.484375 2279.621094 2504.484375 C 2289.121094 2504.484375 2296.355469 2501.839844 2301.429688 2496.496094 C 2306.609375 2491.042969 2310.117188 2482.675781 2312.007812 2471.449219 L 2327.339844 2471.449219 C 2323.722656 2502.109375 2307.742188 2517.4375 2279.40625 2517.4375 C 2272.765625 2517.4375 2266.664062 2516.464844 2261.050781 2514.632812 C 2255.546875 2512.796875 2250.957031 2510.257812 2247.234375 2507.074219 C 2243.453125 2503.78125 2240.214844 2500.164062 2237.515625 2496.277344 C 2234.761719 2492.285156 2232.660156 2487.964844 2231.253906 2483.324219 C 2229.796875 2478.574219 2228.71875 2474.148438 2228.015625 2469.9375 C 2227.261719 2465.617188 2226.9375 2461.300781 2226.9375 2456.980469 Z M 2226.9375 2456.980469 " fill-opacity="1" fill-rule="nonzero"/><path fill="#faf6f5" d="M 2549.378906 2460.867188 L 2489.785156 2460.867188 L 2489.785156 2513.769531 L 2474.886719 2513.769531 L 2474.886719 2397.605469 L 2489.785156 2397.605469 L 2489.785156 2447.914062 L 2549.378906 2447.914062 L 2549.378906 2397.605469 L 2564.277344 2397.605469 L 2564.277344 2513.769531 L 2549.378906 2513.769531 Z M 2549.378906 2460.867188 " fill-opacity="1" fill-rule="nonzero"/><path fill="#faf6f5" d="M 2720.019531 2397.605469 L 2734.917969 2397.605469 L 2734.917969 2513.769531 L 2720.019531 2513.769531 Z M 2720.019531 2397.605469 " fill-opacity="1" fill-rule="nonzero"/><path fill="#faf6f5" d="M 2978.691406 2397.605469 L 2978.691406 2513.769531 L 2961.847656 2513.769531 L 2901.824219 2419.628906 L 2901.824219 2513.769531 L 2887.789062 2513.769531 L 2887.789062 2397.605469 L 2903.980469 2397.605469 L 2964.65625 2492.609375 L 2964.65625 2397.605469 Z M 2978.691406 2397.605469 " fill-opacity="1" fill-rule="nonzero"/><path fill="#faf6f5" d="M 3147.167969 2460.867188 L 3147.167969 2500.597656 L 3215.832031 2500.597656 L 3215.832031 2513.769531 L 3132.273438 2513.769531 L 3132.273438 2397.605469 L 3212.808594 2397.605469 L 3212.808594 2410.777344 L 3147.167969 2410.777344 L 3147.167969 2447.914062 L 3210.433594 2447.914062 L 3210.433594 2460.867188 Z M 3147.167969 2460.867188 " fill-opacity="1" fill-rule="nonzero"/><path fill="#faf6f5" d="M 3406.210938 2504.484375 C 3410.960938 2504.484375 3415.117188 2503.996094 3418.734375 2502.972656 C 3422.460938 2502 3425.320312 2500.8125 3427.371094 2499.515625 C 3429.53125 2498.113281 3431.257812 2496.386719 3432.554688 2494.335938 C 3433.847656 2492.339844 3434.710938 2490.449219 3435.144531 2488.722656 C 3435.574219 2486.992188 3435.792969 2485.210938 3435.792969 2483.324219 C 3435.792969 2478.734375 3434.066406 2474.902344 3430.609375 2471.878906 C 3427.15625 2468.855469 3421.757812 2466.429688 3414.417969 2464.539062 L 3385.484375 2456.765625 C 3370.371094 2452.878906 3362.8125 2443.917969 3362.8125 2429.777344 C 3362.8125 2419.304688 3366.484375 2410.992188 3373.824219 2404.945312 C 3381.273438 2398.792969 3391.367188 2395.660156 3404.050781 2395.660156 C 3417.4375 2395.660156 3427.804688 2398.847656 3435.144531 2405.160156 C 3442.59375 2411.53125 3446.425781 2420.382812 3446.585938 2431.71875 L 3432.554688 2431.71875 C 3432.390625 2424.109375 3429.800781 2418.277344 3424.78125 2414.230469 C 3419.867188 2410.234375 3412.796875 2408.183594 3403.621094 2408.183594 C 3395.683594 2408.183594 3389.371094 2410.019531 3384.621094 2413.582031 C 3379.871094 2417.035156 3377.496094 2421.734375 3377.496094 2427.617188 C 3377.496094 2432.257812 3378.84375 2435.820312 3381.597656 2438.414062 C 3384.457031 2440.894531 3389.476562 2443.054688 3396.710938 2444.890625 L 3425.859375 2452.878906 C 3433.742188 2454.929688 3439.785156 2458.4375 3443.996094 2463.460938 C 3448.316406 2468.53125 3450.472656 2474.632812 3450.472656 2481.8125 C 3450.472656 2484.996094 3450.042969 2488.074219 3449.179688 2491.097656 C 3448.421875 2494.121094 3447.019531 2497.304688 3444.859375 2500.597656 C 3442.808594 2503.78125 3440.164062 2506.589844 3436.871094 2509.019531 C 3433.523438 2511.5 3429.152344 2513.496094 3423.699219 2515.0625 C 3418.195312 2516.628906 3412.042969 2517.4375 3405.132812 2517.4375 C 3400.8125 2517.4375 3396.601562 2517.058594 3392.609375 2516.359375 C 3388.558594 2515.601562 3384.457031 2514.308594 3380.300781 2512.472656 C 3376.253906 2510.636719 3372.746094 2508.261719 3369.722656 2505.347656 C 3366.699219 2502.484375 3364.160156 2498.597656 3362.164062 2493.6875 C 3360.273438 2488.667969 3359.25 2483.054688 3359.140625 2476.847656 L 3373.175781 2476.847656 L 3373.175781 2477.710938 C 3373.175781 2480.894531 3373.660156 2483.917969 3374.6875 2486.777344 C 3375.660156 2489.691406 3377.332031 2492.554688 3379.652344 2495.414062 C 3381.921875 2498.167969 3385.320312 2500.382812 3389.800781 2502.109375 C 3394.390625 2503.726562 3399.84375 2504.484375 3406.210938 2504.484375 Z M 3406.210938 2504.484375 " fill-opacity="1" fill-rule="nonzero"/></svg>